<?xml version="1.0" encoding="iso-8859-1"?>
<!-- Generator: Adobe Illustrator 19.0.0, SVG Export Plug-In . SVG Version: 6.00 Build 0)  -->
<svg version="1.1" id="Capa_1" xmlns="http://www.w3.org/2000/svg" xmlns:xlink="http://www.w3.org/1999/xlink" x="0px" y="0px"
	 viewBox="0 0 512 512" style="enable-background:new 0 0 512 512;" xml:space="preserve">
<path style="fill:#5A422D;" d="M320.783,439.489L72.91,191.615L264.127,0.399L512,248.271L320.783,439.489z"/>
<path style="fill:#C8AD92;" d="M320.783,511.601L72.91,263.728L264.127,72.511L512,320.384L320.783,511.601z"/>
<rect x="272.651" y="68.978" transform="matrix(-0.7071 0.7071 -0.7071 -0.7071 753.5628 176.3621)" style="fill:#AB825B;" width="135.209" height="350.542"/>
<g>
	
		<rect x="247.689" y="177.168" transform="matrix(-0.7071 -0.7071 0.7071 -0.7071 263.0029 633.5396)" style="fill:#715539;" width="30.046" height="170.263"/>
	
		<rect x="290.185" y="219.669" transform="matrix(-0.7071 -0.7071 0.7071 -0.7071 305.4958 736.1421)" style="fill:#715539;" width="30.046" height="170.263"/>
	
		<rect x="332.664" y="262.163" transform="matrix(-0.7071 -0.7071 0.7071 -0.7071 347.9646 838.7203)" style="fill:#715539;" width="30.046" height="170.263"/>
</g>
<g>
	
		<rect x="277.793" y="189.654" transform="matrix(0.7071 0.7071 -0.7071 0.7071 249.968 -139.0368)" style="fill:#5A422D;" width="30.046" height="85.132"/>
	
		<rect x="292.74" y="259.684" transform="matrix(0.7071 -0.7071 0.7071 0.7071 -96.0386 317.5568)" style="fill:#5A422D;" width="85.132" height="30.046"/>
	
		<rect x="335.228" y="302.177" transform="matrix(0.7071 -0.7071 0.7071 0.7071 -113.6411 360.0468)" style="fill:#5A422D;" width="85.132" height="30.046"/>
</g>
<path style="fill:#FFEC97;" d="M270.421,431.273H0V80.728h270.421V431.273z"/>
<rect x="135.21" y="80.726" style="fill:#FFDF47;" width="135.21" height="350.546"/>
<g>
	<rect x="50.078" y="138.816" style="fill:#FF8900;" width="140.218" height="30.047"/>
	<rect x="50.078" y="198.91" style="fill:#FF8900;" width="170.265" height="30.047"/>
	<rect x="50.078" y="259.003" style="fill:#FF8900;" width="60.094" height="30.047"/>
</g>
<path style="fill:#FC0025;" d="M175.273,304.075v-45.07c24.724,0,45.07,20.346,45.07,45.07s-20.346,45.07-45.07,45.07
	s-45.07-20.346-45.07-45.07H175.273z"/>
<rect x="50.078" y="319.097" style="fill:#FF8900;" width="60.094" height="30.047"/>
<g>
	<rect x="135.21" y="138.816" style="fill:#C06100;" width="55.086" height="30.047"/>
	<rect x="135.21" y="198.91" style="fill:#C06100;" width="85.133" height="30.047"/>
</g>
<g>
</g>
<g>
</g>
<g>
</g>
<g>
</g>
<g>
</g>
<g>
</g>
<g>
</g>
<g>
</g>
<g>
</g>
<g>
</g>
<g>
</g>
<g>
</g>
<g>
</g>
<g>
</g>
<g>
</g>
</svg>
